<svg xmlns="http://www.w3.org/2000/svg" xmlns:xlink="http://www.w3.org/1999/xlink" width="1920" zoomAndPan="magnify" viewBox="0 0 1440 404.99999" height="540" preserveAspectRatio="xMidYMid meet" version="1.0"><defs><g/><clipPath id="6f8ee80395"><rect x="0" width="1285" y="0" height="247"/></clipPath><clipPath id="a25e484760"><path d="M 1337.082031 177.425781 L 1419.582031 177.425781 L 1419.582031 259.925781 L 1337.082031 259.925781 Z M 1337.082031 177.425781 " clip-rule="nonzero"/></clipPath><clipPath id="0603095fad"><path d="M 0.0820312 0.589844 L 82.582031 0.589844 L 82.582031 82.925781 L 0.0820312 82.925781 Z M 0.0820312 0.589844 " clip-rule="nonzero"/></clipPath><clipPath id="5f5be20b24"><rect x="0" width="83" y="0" height="83"/></clipPath></defs><g transform="matrix(1, 0, 0, 1, 20, 78)"><g clip-path="url(#6f8ee80395)"><g fill="#140e0c" fill-opacity="1"><g transform="translate(0.250016, 185.45549)"><g><path d="M 5.53125 0 L 5.53125 -33.78125 L 50.171875 -33.78125 L 50.171875 0 Z M 5.53125 0 "/></g></g></g><g fill="#140e0c" fill-opacity="1"><g transform="translate(52.05537, 185.45549)"><g><path d="M 5.53125 30.71875 L 58.765625 -147.4375 L 105.25 -147.4375 L 52.015625 30.71875 Z M 5.53125 30.71875 "/></g></g></g><g fill="#140e0c" fill-opacity="1"><g transform="translate(158.737684, 185.45549)"><g><path d="M 5.53125 0 L 5.53125 -143.328125 L 111.390625 -143.328125 C 120.265625 -143.328125 128.726562 -141.859375 136.78125 -138.921875 C 144.832031 -135.992188 152.066406 -131.59375 158.484375 -125.71875 C 164.898438 -119.851562 169.953125 -112.414062 173.640625 -103.40625 C 177.328125 -94.394531 179.171875 -83.816406 179.171875 -71.671875 C 179.171875 -59.515625 177.328125 -48.929688 173.640625 -39.921875 C 169.953125 -30.921875 164.898438 -23.484375 158.484375 -17.609375 C 152.066406 -11.742188 144.832031 -7.34375 136.78125 -4.40625 C 128.726562 -1.46875 120.265625 0 111.390625 0 Z M 53.65625 -40.546875 L 95.625 -40.546875 C 99.851562 -40.546875 104.050781 -40.816406 108.21875 -41.359375 C 112.382812 -41.910156 116.207031 -43.175781 119.6875 -45.15625 C 123.164062 -47.132812 125.960938 -50.203125 128.078125 -54.359375 C 130.191406 -58.523438 131.25 -64.296875 131.25 -71.671875 C 131.25 -79.035156 130.191406 -84.800781 128.078125 -88.96875 C 125.960938 -93.132812 123.164062 -96.207031 119.6875 -98.1875 C 116.207031 -100.164062 112.382812 -101.425781 108.21875 -101.96875 C 104.050781 -102.519531 99.851562 -102.796875 95.625 -102.796875 L 53.65625 -102.796875 Z M 53.65625 -40.546875 "/></g></g></g><g fill="#140e0c" fill-opacity="1"><g transform="translate(337.497176, 185.45549)"><g><path d="M 3.484375 0 L 67.578125 -143.328125 L 137.390625 -143.328125 L 201.28125 0 L 148.453125 0 L 136.78125 -27.234375 L 68.1875 -27.234375 L 56.3125 0 Z M 81.703125 -61.21875 L 123.0625 -61.21875 L 102.375 -109.140625 Z M 81.703125 -61.21875 "/></g></g></g><g fill="#140e0c" fill-opacity="1"><g transform="translate(538.371304, 185.45549)"><g><path d="M 4.296875 -81.90625 L 18.21875 -147.4375 L 57.125 -147.4375 L 48.9375 -81.90625 Z M 4.296875 -81.90625 "/></g></g></g><g fill="#140e0c" fill-opacity="1"><g transform="translate(598.981534, 185.45549)"><g><path d="M 67.578125 0 L 3.484375 -143.328125 L 56.71875 -143.328125 L 102.375 -34.203125 L 148.25 -143.328125 L 201.28125 -143.328125 L 137.390625 0 Z M 67.578125 0 "/></g></g></g><g fill="#140e0c" fill-opacity="1"><g transform="translate(799.855603, 185.45549)"><g><path d="M 5.53125 0 L 5.53125 -143.328125 L 53.65625 -143.328125 L 53.65625 0 Z M 5.53125 0 "/></g></g></g><g fill="#140e0c" fill-opacity="1"><g transform="translate(854.937218, 185.45549)"><g><path d="M 5.53125 0 L 5.53125 -143.328125 L 69 -143.328125 L 142.3125 -52.421875 L 142.3125 -143.328125 L 190.234375 -143.328125 L 190.234375 0 L 126.953125 0 L 53.65625 -90.921875 L 53.65625 0 Z M 5.53125 0 "/></g></g></g><g fill="#140e0c" fill-opacity="1"><g transform="translate(1046.8017, 185.45549)"><g><path d="M 93.578125 2.046875 C 62.046875 2.046875 39.144531 -4.128906 24.875 -16.484375 C 10.613281 -28.835938 3.484375 -47.300781 3.484375 -71.875 C 3.484375 -96.3125 10.613281 -114.671875 24.875 -126.953125 C 39.144531 -139.242188 62.046875 -145.390625 93.578125 -145.390625 C 122.242188 -145.390625 143.984375 -140.128906 158.796875 -129.609375 C 173.609375 -119.097656 181.695312 -102.851562 183.0625 -80.875 L 134.125 -80.875 C 132.894531 -89.070312 128.96875 -95.113281 122.34375 -99 C 115.726562 -102.894531 106.140625 -104.84375 93.578125 -104.84375 C 82.515625 -104.84375 73.945312 -103.476562 67.875 -100.75 C 61.800781 -98.019531 57.566406 -94.160156 55.171875 -89.171875 C 52.785156 -84.191406 51.59375 -78.425781 51.59375 -71.875 C 51.59375 -65.320312 52.785156 -59.519531 55.171875 -54.46875 C 57.566406 -49.414062 61.800781 -45.488281 67.875 -42.6875 C 73.945312 -39.894531 82.515625 -38.5 93.578125 -38.5 C 106.140625 -38.5 115.726562 -40.476562 122.34375 -44.4375 C 128.96875 -48.394531 132.894531 -54.535156 134.125 -62.859375 L 183.0625 -62.859375 C 181.695312 -40.878906 173.640625 -24.566406 158.890625 -13.921875 C 144.148438 -3.273438 122.378906 2.046875 93.578125 2.046875 Z M 93.578125 2.046875 "/></g></g></g><g fill="#140e0c" fill-opacity="1"><g transform="translate(1229.451641, 185.45549)"><g><path d="M 5.53125 0 L 5.53125 -143.328125 L 53.65625 -143.328125 L 53.65625 0 Z M 5.53125 0 "/></g></g></g></g></g><g clip-path="url(#a25e484760)"><g transform="matrix(1, 0, 0, 1, 1337, 177)"><g clip-path="url(#5f5be20b24)"><g clip-path="url(#0603095fad)"><path fill="#140e0c" d="M 74.5625 83.089844 L 74.5625 14.441406 L 6.128906 83.089844 L 0.0820312 77.273438 L 68.527344 8.609375 L 0.0820312 8.609375 L 0.0820312 0.425781 L 82.746094 0.425781 L 82.746094 83.089844 Z M 74.5625 83.089844 " fill-opacity="1" fill-rule="nonzero"/></g></g></g></g></svg>